<svg width="17" height="19" viewBox="0 0 17 19" fill="none" xmlns="http://www.w3.org/2000/svg">
<path d="M0.140015 6.46C0.140015 6.86313 0.300157 7.24974 0.585212 7.5348C0.870268 7.81985 1.25689 7.98 1.66001 7.98V15.58C1.66001 16.3863 1.9803 17.1595 2.55041 17.7296C3.12052 18.2997 3.89376 18.62 4.70001 18.62H12.3C13.1063 18.62 13.8795 18.2997 14.4496 17.7296C15.0197 17.1595 15.34 16.3863 15.34 15.58V7.98C15.7431 7.98 16.1298 7.81985 16.4148 7.5348C16.6999 7.24974 16.86 6.86313 16.86 6.46V4.94C16.86 4.53687 16.6999 4.15025 16.4148 3.86519C16.1298 3.58014 15.7431 3.42 15.34 3.42H12.3V1.9C12.3 1.49687 12.1399 1.11025 11.8548 0.825195C11.5698 0.54014 11.1831 0.379997 10.78 0.379997H6.22002C5.81689 0.379997 5.43027 0.54014 5.14521 0.825195C4.86016 1.11025 4.70001 1.49687 4.70001 1.9V3.42H1.66001C1.25689 3.42 0.870268 3.58014 0.585212 3.86519C0.300157 4.15025 0.140015 4.53687 0.140015 4.94V6.46ZM13.82 15.58C13.82 15.9831 13.6599 16.3697 13.3748 16.6548C13.0898 16.9399 12.7031 17.1 12.3 17.1H4.70001C4.29689 17.1 3.91027 16.9399 3.62521 16.6548C3.34016 16.3697 3.18001 15.9831 3.18001 15.58V7.98H13.82V15.58ZM6.22002 1.9H10.78V3.42H6.22002V1.9ZM1.66001 4.94H15.34V6.46H1.66001V4.94Z" fill="#E64040"/>
</svg>
